<svg xmlns="http://www.w3.org/2000/svg" viewBox="0 0 24 24" fill="#ffffff">
  <path d="M15.575 1.91c-.926.11-2.03.653-2.662 1.36-.56.627-1.02 1.56-.84 2.463.998.074 2.024-.486 2.625-1.205.558-.673.97-1.612.877-2.618ZM18.8 8.114c-1.165-1.43-2.804-1.43-3.247-1.43-1.028 0-1.95.569-2.59.569-.662 0-1.698-.55-2.797-.55-1.451.018-2.776.83-3.52 2.112-1.508 2.602-.385 6.462 1.086 8.612.72 1.048 1.577 2.223 2.701 2.183 1.085-.042 1.496-.703 2.81-.703 1.314 0 1.684.703 2.832.68 1.172-.02 1.915-1.064 2.63-2.116.82-1.2 1.158-2.364 1.178-2.425-.026-.009-2.256-.865-2.278-3.435-.02-2.151 1.76-3.18 1.841-3.228-.998-1.467-2.556-1.65-2.846-1.669Z"/>
</svg>
